<?xml version="1.0" standalone="no"?>
<!DOCTYPE svg PUBLIC "-//W3C//DTD SVG 20010904//EN"
 "http://www.w3.org/TR/2001/REC-SVG-20010904/DTD/svg10.dtd">
<svg version="1.0" xmlns="http://www.w3.org/2000/svg"
 width="267.000000pt" height="248.000000pt" viewBox="0 0 267.000000 248.000000"
 preserveAspectRatio="xMidYMid meet">

<g transform="translate(0.000000,248.000000) scale(0.100000,-0.100000)"
fill="#000000" stroke="none">
<path d="M964 2435 c-37 -25 -78 -45 -90 -45 -60 0 -211 -57 -374 -142 -96
-50 -182 -97 -191 -105 -14 -12 -22 -11 -60 9 -56 30 -237 84 -247 74 -9 -10
161 -171 203 -193 39 -20 38 -18 26 -40 -20 -35 -41 -96 -41 -118 0 -35 44
-82 85 -89 20 -4 38 -13 41 -21 3 -8 -10 -40 -30 -72 -45 -74 -48 -123 -10
-158 27 -25 36 -27 108 -29 35 -1 42 -5 60 -39 11 -21 108 -127 215 -235 191
-193 248 -256 370 -414 65 -83 158 -163 269 -229 109 -65 160 -115 245 -243
69 -103 151 -257 171 -323 4 -13 12 -23 17 -23 12 0 15 -8 -36 109 -54 125
-200 345 -269 408 -27 24 -80 62 -118 84 -105 61 -209 151 -274 235 -111 143
-178 219 -347 392 -108 110 -167 178 -164 187 4 9 1 12 -7 9 -22 -8 -68 55
-62 85 3 14 3 20 0 14 -11 -24 -23 -13 -39 35 -14 42 -15 43 -10 10 5 -34 3
-38 -21 -44 -14 -4 -43 -2 -64 5 -73 22 -78 104 -8 135 31 14 32 15 4 9 -25
-5 -27 -4 -18 13 6 11 19 29 31 41 l20 21 -50 72 c-27 40 -51 82 -52 94 -1 11
-6 24 -11 28 -15 10 9 54 39 74 25 16 30 16 78 1 28 -9 53 -15 55 -13 2 2 -12
9 -31 15 -44 15 -70 43 -65 73 3 20 10 24 53 29 l50 5 -50 5 -50 4 55 28 c30
15 65 27 78 27 13 0 22 6 22 16 0 19 220 126 303 147 60 16 69 13 40 -9 -10
-8 14 1 52 20 62 30 71 32 77 18 5 -14 7 -13 7 4 1 13 16 31 41 48 48 32 54
32 40 4 l-11 -23 17 23 c11 15 27 22 50 22 19 0 34 -5 34 -11 0 -5 4 -8 9 -5
17 11 41 -6 41 -27 0 -11 -10 -32 -22 -46 l-23 -26 28 24 c15 14 27 31 27 38
0 11 11 8 43 -11 23 -14 67 -38 97 -54 74 -40 120 -75 218 -166 45 -42 85 -76
87 -76 6 0 -91 92 -158 150 -21 18 -36 34 -34 37 7 7 131 -53 217 -106 48 -29
120 -63 166 -77 45 -13 94 -34 109 -46 42 -33 65 -93 65 -173 0 -38 18 -209
40 -379 23 -169 40 -325 38 -346 l-3 -39 -483 272 -484 272 6 55 c4 33 3 50
-3 41 -6 -10 -13 -11 -29 -2 -11 6 -32 11 -46 11 -13 0 -26 6 -28 12 -3 9 -9
8 -22 -5 -10 -9 -24 -17 -32 -17 -23 0 -105 51 -98 61 3 5 -5 9 -17 9 -27 0
-231 112 -221 121 4 4 16 9 27 12 11 3 -11 5 -50 6 -38 1 -81 4 -95 7 -18 5
-12 -2 20 -23 51 -33 210 -201 224 -236 4 -12 22 -29 40 -37 17 -8 47 -39 68
-71 70 -107 164 -164 286 -174 l57 -4 -54 10 c-30 5 -56 10 -57 12 -1 1 9 15
22 30 18 21 30 27 45 22 12 -4 18 -13 15 -20 -3 -9 0 -12 9 -8 13 5 912 -502
943 -532 8 -7 22 -62 32 -123 34 -194 103 -314 390 -668 27 -34 59 -82 71
-108 13 -25 27 -46 31 -46 11 0 11 1 -19 57 -27 48 -100 147 -190 257 -69 84
-173 244 -214 330 -27 56 -43 109 -53 171 -8 50 -12 92 -10 95 6 6 76 -32 172
-92 42 -27 124 -71 181 -99 l104 -51 28 29 c16 15 31 42 35 59 6 29 2 34 -42
65 -96 67 -188 120 -219 127 -17 4 -94 43 -171 86 l-141 79 -12 116 c-7 64
-25 208 -41 321 -15 113 -31 255 -35 315 -4 64 -13 123 -22 142 -25 55 -73 89
-152 108 -45 11 -103 37 -163 72 -115 68 -191 106 -243 123 -55 17 -104 43
-189 98 -134 87 -174 91 -272 27z m-839 -251 c39 -13 76 -26 84 -29 11 -5 11
-8 -1 -23 -8 -9 -18 -25 -21 -34 -4 -10 -10 -18 -14 -18 -4 0 -42 32 -83 71
-41 39 -66 68 -55 64 11 -4 52 -18 90 -31z m143 -64 c17 -11 32 -26 32 -34 0
-8 2 -21 5 -28 4 -9 -3 -19 -17 -25 -18 -9 -31 -6 -60 10 -43 23 -44 27 -23
67 18 35 20 36 63 10z m1176 -661 c490 -276 897 -508 905 -514 11 -11 11 -17
-3 -36 -9 -13 -16 -28 -16 -34 1 -5 7 2 16 17 22 41 50 53 80 33 14 -9 22 -21
18 -27 -4 -7 -3 -8 4 -4 6 4 21 2 32 -4 18 -10 19 -14 8 -28 -12 -15 -11 -16
4 -4 20 16 43 10 76 -18 l24 -20 -26 -31 c-14 -17 -26 -36 -26 -42 0 -7 9 3
20 21 11 18 27 35 35 39 19 7 55 -24 55 -47 0 -22 -39 -72 -40 -51 0 12 -3 11
-13 -2 -11 -16 -13 -16 -37 0 -14 10 -31 18 -38 20 -23 3 -26 12 -14 38 15 32
7 33 -10 0 l-13 -24 -72 42 c-40 23 -75 50 -78 59 -4 9 -11 15 -18 12 -7 -2
-138 68 -292 157 -154 89 -505 290 -780 446 l-500 285 -107 109 c-59 60 -102
109 -96 109 6 0 412 -226 902 -501z m-1170 381 c23 -30 25 -35 10 -38 -28 -6
-69 32 -72 67 -2 18 -1 40 3 49 5 14 9 11 20 -13 7 -16 25 -46 39 -65z m801
-100 c15 -12 22 -65 7 -58 -34 15 -112 65 -112 72 0 12 87 1 105 -14z m-249
-58 c32 -22 98 -61 146 -88 49 -27 98 -57 110 -66 22 -16 22 -17 4 -37 -11
-12 -29 -21 -40 -21 -60 1 -156 78 -200 160 -11 21 -33 43 -57 54 -21 11 -39
23 -39 28 0 15 16 8 76 -30z"/>
<path d="M2384 885 c-9 -14 -15 -27 -13 -30 3 -2 12 10 21 26 21 36 15 39 -8
4z"/>
<path d="M2416 893 c-6 -14 -5 -15 5 -6 7 7 10 15 7 18 -3 3 -9 -2 -12 -12z"/>
<path d="M2449 863 c-13 -16 -12 -17 4 -4 9 7 17 15 17 17 0 8 -8 3 -21 -13z"/>
<path d="M2387 835 c-4 -9 -3 -13 3 -10 6 3 10 0 10 -7 0 -8 5 -6 11 5 6 10 8
21 5 24 -3 4 -6 0 -6 -8 0 -11 -2 -12 -9 -1 -7 11 -9 10 -14 -3z"/>
<path d="M2525 840 c-4 -6 -10 -8 -15 -5 -13 8 -35 -24 -24 -35 7 -7 18 1 32
20 13 16 20 30 18 30 -3 0 -8 -5 -11 -10z m-22 -25 c-3 -9 -8 -14 -10 -11 -3
3 -2 9 2 15 9 16 15 13 8 -4z"/>
<path d="M2455 810 c-9 -16 -13 -30 -11 -30 3 0 12 14 21 30 9 17 13 30 11 30
-3 0 -12 -13 -21 -30z"/>
<path d="M2529 813 c-13 -16 -12 -17 4 -4 9 7 17 15 17 17 0 8 -8 3 -21 -13z"/>
<path d="M2543 798 c-15 -20 -25 -38 -20 -38 3 0 12 11 21 25 17 26 16 35 -1
13z"/>
<path d="M2615 749 c-4 -6 -5 -12 -2 -15 2 -3 7 2 10 11 7 17 1 20 -8 4z"/>
<path d="M720 2290 c-36 -22 -78 -40 -93 -40 -15 0 -42 -8 -60 -17 -18 -9 -45
-20 -62 -24 -25 -6 -26 -7 -7 -8 15 -1 21 -5 16 -13 -4 -6 8 0 28 15 37 28 78
36 78 15 0 -7 5 -5 11 5 15 25 32 21 24 -5 -5 -16 0 -13 14 10 12 18 44 47 71
64 43 27 57 38 48 38 -2 0 -32 -18 -68 -40z"/>
<path d="M1001 2148 c0 -14 -4 -35 -7 -45 -5 -17 -5 -17 6 0 6 10 9 30 7 45
l-4 27 -2 -27z"/>
<path d="M613 2125 c0 -22 2 -30 4 -17 2 12 2 30 0 40 -3 9 -5 -1 -4 -23z"/>
<path d="M435 2140 c-13 -6 -15 -9 -5 -9 8 0 22 4 30 9 18 12 2 12 -25 0z"/>
<path d="M1645 2093 c6 -5 33 -22 60 -37 28 -15 41 -20 30 -11 -22 19 -106 63
-90 48z"/>
<path d="M670 2084 c0 -6 7 -19 16 -30 14 -18 14 -18 3 6 -14 31 -19 36 -19
24z"/>
<path d="M977 2073 c-11 -10 -8 -20 7 -26 10 -4 12 0 9 14 -6 21 -7 22 -16 12z"/>
<path d="M925 2035 c-16 -8 -23 -14 -14 -15 8 0 24 7 35 15 23 18 18 18 -21 0z"/>
<path d="M713 2013 c9 -11 14 -23 10 -26 -8 -9 15 -7 47 3 l25 8 -25 1 c-14 1
-37 9 -50 18 -25 16 -25 16 -7 -4z"/>
<path d="M858 2013 c6 -2 18 -2 25 0 6 3 1 5 -13 5 -14 0 -19 -2 -12 -5z"/>
<path d="M818 2003 c7 -3 16 -2 19 1 4 3 -2 6 -13 5 -11 0 -14 -3 -6 -6z"/>
<path d="M1020 1996 c0 -2 8 -10 18 -17 15 -13 16 -12 3 4 -13 16 -21 21 -21
13z"/>
<path d="M1800 1996 c0 -2 8 -10 18 -17 15 -13 16 -12 3 4 -13 16 -21 21 -21
13z"/>
<path d="M917 1951 c-9 -16 -17 -39 -17 -51 0 -12 -4 -29 -9 -39 -7 -13 -5
-17 9 -17 13 0 17 8 16 30 0 17 5 31 13 34 10 3 12 0 8 -12 -4 -10 -3 -15 3
-11 11 7 12 51 2 78 -6 15 -10 14 -25 -12z m23 -16 c0 -8 -4 -15 -10 -15 -5 0
-7 7 -4 15 4 8 8 15 10 15 2 0 4 -7 4 -15z"/>
<path d="M359 1926 c14 -15 26 -26 28 -26 9 0 -24 40 -37 45 -8 4 -4 -5 9 -19z"/>
<path d="M1080 1937 c13 -18 82 -57 97 -57 4 1 -10 10 -32 22 -22 11 -49 28
-60 37 -19 15 -19 15 -5 -2z"/>
<path d="M1857 1895 c7 -49 13 -58 13 -19 0 16 -5 36 -10 44 -6 10 -7 2 -3
-25z"/>
<path d="M1203 1869 c9 -5 17 -20 17 -33 0 -13 13 -49 29 -81 17 -33 28 -62
25 -66 -2 -4 5 -5 17 -2 19 5 20 7 4 15 -20 12 -65 104 -65 136 0 17 6 22 27
22 38 0 26 6 -27 14 -34 4 -41 3 -27 -5z"/>
<path d="M423 1800 c0 -25 2 -35 4 -22 2 12 2 32 0 45 -2 12 -4 2 -4 -23z"/>
<path d="M955 1825 c17 -8 41 -14 55 -14 15 0 5 6 -25 14 -62 17 -69 17 -30 0z"/>
<path d="M1171 1824 c0 -11 3 -14 6 -6 3 7 2 16 -1 19 -3 4 -6 -2 -5 -13z"/>
<path d="M1128 1783 c6 -64 9 -64 13 -4 3 33 0 51 -7 51 -8 0 -10 -16 -6 -47z"/>
<path d="M347 1711 c-3 -13 -1 -18 8 -15 8 3 19 -11 29 -38 15 -43 15 -43 10
-7 -4 22 -1 39 5 43 6 4 11 12 11 19 0 6 -6 3 -13 -8 -13 -17 -14 -17 -29 4
-15 21 -16 21 -21 2z"/>
<path d="M1375 1719 c-16 -6 -14 -8 13 -8 33 -1 41 4 20 12 -7 2 -22 1 -33 -4z"/>
<path d="M1328 1703 c7 -3 16 -2 19 1 4 3 -2 6 -13 5 -11 0 -14 -3 -6 -6z"/>
<path d="M1438 1703 c6 -2 18 -2 25 0 6 3 1 5 -13 5 -14 0 -19 -2 -12 -5z"/>
<path d="M1209 1643 c-13 -16 -12 -17 4 -4 9 7 17 15 17 17 0 8 -8 3 -21 -13z"/>
<path d="M1305 1590 c-12 -4 14 -6 60 -3 44 3 82 7 84 9 9 8 -125 2 -144 -6z"/>
</g>
</svg>
